<?xml version="1.0" encoding="utf-8"?>
<!-- Generator: Adobe Illustrator 16.0.0, SVG Export Plug-In . SVG Version: 6.00 Build 0)  -->
<!DOCTYPE svg PUBLIC "-//W3C//DTD SVG 1.1//EN" "http://www.w3.org/Graphics/SVG/1.1/DTD/svg11.dtd">
<svg version="1.1" id="Layer_1" xmlns="http://www.w3.org/2000/svg" xmlns:xlink="http://www.w3.org/1999/xlink" x="0px" y="0px"
	 width="220.75px" height="46.25px" viewBox="0 0 220.75 46.25" enable-background="new 0 0 220.75 46.25" xml:space="preserve">
<g>
	<g>
		<path fill="#F1F1F1" d="M58.147,30.564c0-0.09,0.072-0.171,0.171-0.171h3.547c0.099,0,0.171,0.081,0.171,0.171v0.261
			c0,0.091-0.072,0.172-0.171,0.172H58.84v2.466h2.584c0.09,0,0.171,0.081,0.171,0.172v0.261c0,0.09-0.081,0.171-0.171,0.171H58.84
			v2.458c0,0.09-0.081,0.171-0.171,0.171h-0.351c-0.099,0-0.171-0.081-0.171-0.171V30.564z"/>
		<path fill="#F1F1F1" d="M66.691,30.564c0-0.09,0.072-0.171,0.171-0.171h2.332c1.081,0,1.963,0.846,1.963,1.917
			c0,0.829-0.549,1.521-1.333,1.837l1.233,2.287c0.063,0.116,0,0.261-0.153,0.261h-0.459c-0.081,0-0.126-0.045-0.144-0.081
			l-1.197-2.386h-1.72v2.296c0,0.09-0.081,0.171-0.171,0.171h-0.351c-0.099,0-0.171-0.081-0.171-0.171V30.564z M69.148,33.635
			c0.693,0,1.296-0.576,1.296-1.314c0-0.685-0.603-1.27-1.296-1.27h-1.747v2.584H69.148z"/>
		<path fill="#F1F1F1" d="M78.836,30.304c1.801,0,3.241,1.449,3.241,3.25c0,1.8-1.44,3.231-3.241,3.231
			c-1.8,0-3.232-1.432-3.232-3.231C75.604,31.753,77.036,30.304,78.836,30.304z M78.836,36.155c1.432,0,2.611-1.171,2.611-2.602
			c0-1.432-1.179-2.62-2.611-2.62c-1.431,0-2.602,1.188-2.602,2.62C76.234,34.984,77.405,36.155,78.836,36.155z"/>
		<path fill="#F1F1F1" d="M86.877,30.466c0-0.091,0.081-0.162,0.171-0.162h0.225l4.06,5.06c0.009,0,0.009,0,0.018,0v-4.799
			c0-0.09,0.072-0.171,0.171-0.171h0.315c0.09,0,0.171,0.081,0.171,0.171v6.059c0,0.09-0.081,0.162-0.171,0.162h-0.162l-4.132-5.158
			h-0.009v4.897c0,0.09-0.072,0.171-0.171,0.171h-0.315c-0.09,0-0.171-0.081-0.171-0.171V30.466z"/>
		<path fill="#F1F1F1" d="M98.158,30.997h-1.566c-0.099,0-0.171-0.081-0.171-0.172v-0.261c0-0.09,0.072-0.171,0.171-0.171h3.817
			c0.099,0,0.171,0.081,0.171,0.171v0.261c0,0.091-0.072,0.172-0.171,0.172h-1.566v5.527c0,0.09-0.081,0.171-0.171,0.171h-0.342
			c-0.09,0-0.171-0.081-0.171-0.171V30.997z"/>
		<path fill="#F1F1F1" d="M104.514,34.553v-0.171c0-0.1,0.072-0.171,0.171-0.171h1.881c0.099,0,0.171,0.071,0.171,0.171v0.171
			c0,0.09-0.072,0.162-0.171,0.162h-1.881C104.586,34.715,104.514,34.643,104.514,34.553z"/>
		<path fill="#F1F1F1" d="M111.654,30.564c0-0.09,0.072-0.171,0.171-0.171h3.547c0.1,0,0.171,0.081,0.171,0.171v0.261
			c0,0.091-0.071,0.172-0.171,0.172h-3.024v2.196h2.583c0.091,0,0.172,0.081,0.172,0.171v0.261c0,0.1-0.081,0.172-0.172,0.172
			h-2.583v2.295h3.024c0.1,0,0.171,0.081,0.171,0.172v0.261c0,0.09-0.071,0.171-0.171,0.171h-3.547
			c-0.099,0-0.171-0.081-0.171-0.171V30.564z"/>
		<path fill="#F1F1F1" d="M120.405,30.466c0-0.091,0.081-0.162,0.171-0.162h0.226l4.061,5.06c0.009,0,0.009,0,0.018,0v-4.799
			c0-0.09,0.072-0.171,0.171-0.171h0.315c0.09,0,0.171,0.081,0.171,0.171v6.059c0,0.09-0.081,0.162-0.171,0.162h-0.162l-4.132-5.158
			h-0.01v4.897c0,0.09-0.071,0.171-0.171,0.171h-0.315c-0.09,0-0.171-0.081-0.171-0.171V30.466z"/>
		<path fill="#F1F1F1" d="M130.795,30.564c0-0.09,0.072-0.171,0.162-0.171h2.017c1.737,0,3.16,1.413,3.16,3.142
			c0,1.747-1.423,3.16-3.16,3.16h-2.017c-0.09,0-0.162-0.081-0.162-0.171V30.564z M132.83,36.074c1.477,0,2.548-1.054,2.548-2.539
			c0-1.477-1.071-2.529-2.548-2.529h-1.351v5.068H132.83z"/>
		<path fill="#F1F1F1" d="M146.361,30.564c0-0.09,0.072-0.171,0.171-0.171h3.548c0.099,0,0.171,0.081,0.171,0.171v0.261
			c0,0.091-0.072,0.172-0.171,0.172h-3.025v2.196h2.584c0.09,0,0.171,0.081,0.171,0.171v0.261c0,0.1-0.081,0.172-0.171,0.172h-2.584
			v2.295h3.025c0.099,0,0.171,0.081,0.171,0.172v0.261c0,0.09-0.072,0.171-0.171,0.171h-3.548c-0.099,0-0.171-0.081-0.171-0.171
			V30.564z"/>
		<path fill="#F1F1F1" d="M155.112,30.466c0-0.091,0.081-0.162,0.171-0.162h0.226l4.061,5.06c0.009,0,0.009,0,0.018,0v-4.799
			c0-0.09,0.072-0.171,0.171-0.171h0.315c0.09,0,0.171,0.081,0.171,0.171v6.059c0,0.09-0.081,0.162-0.171,0.162h-0.162l-4.132-5.158
			h-0.01v4.897c0,0.09-0.071,0.171-0.171,0.171h-0.315c-0.09,0-0.171-0.081-0.171-0.171V30.466z"/>
		<path fill="#F1F1F1" d="M168.294,30.304c0.909,0,1.566,0.314,2.179,0.837c0.072,0.072,0.081,0.18,0.009,0.252
			c-0.081,0.081-0.18,0.171-0.252,0.252c-0.081,0.09-0.135,0.081-0.234-0.009c-0.459-0.405-1.106-0.702-1.71-0.702
			c-1.423,0-2.503,1.188-2.503,2.584c0,1.386,1.08,2.602,2.503,2.602c0.99,0,1.62-0.378,1.62-0.378V34.48h-1.035
			c-0.099,0-0.171-0.072-0.171-0.162v-0.333c0-0.099,0.072-0.171,0.171-0.171h1.558c0.09,0,0.162,0.081,0.162,0.171v2.062
			c0,0.045-0.036,0.117-0.072,0.145c0,0-0.918,0.594-2.224,0.594c-1.801,0-3.25-1.432-3.25-3.231
			C165.044,31.753,166.493,30.304,168.294,30.304z"/>
		<path fill="#F1F1F1" d="M175.515,30.564c0-0.09,0.081-0.171,0.171-0.171h0.36c0.09,0,0.171,0.081,0.171,0.171v5.96
			c0,0.09-0.081,0.171-0.171,0.171h-0.36c-0.09,0-0.171-0.081-0.171-0.171V30.564z"/>
		<path fill="#F1F1F1" d="M181.475,30.466c0-0.091,0.081-0.162,0.171-0.162h0.226l4.061,5.06c0.009,0,0.009,0,0.018,0v-4.799
			c0-0.09,0.072-0.171,0.171-0.171h0.315c0.09,0,0.171,0.081,0.171,0.171v6.059c0,0.09-0.081,0.162-0.171,0.162h-0.162l-4.133-5.158
			h-0.009v4.897c0,0.09-0.071,0.171-0.171,0.171h-0.315c-0.09,0-0.171-0.081-0.171-0.171V30.466z"/>
		<path fill="#F1F1F1" d="M191.864,30.564c0-0.09,0.072-0.171,0.171-0.171h3.548c0.099,0,0.171,0.081,0.171,0.171v0.261
			c0,0.091-0.072,0.172-0.171,0.172h-3.025v2.196h2.584c0.09,0,0.171,0.081,0.171,0.171v0.261c0,0.1-0.081,0.172-0.171,0.172h-2.584
			v2.295h3.025c0.099,0,0.171,0.081,0.171,0.172v0.261c0,0.09-0.072,0.171-0.171,0.171h-3.548c-0.099,0-0.171-0.081-0.171-0.171
			V30.564z"/>
		<path fill="#F1F1F1" d="M200.616,30.564c0-0.09,0.072-0.171,0.171-0.171h3.548c0.099,0,0.171,0.081,0.171,0.171v0.261
			c0,0.091-0.072,0.172-0.171,0.172h-3.025v2.196h2.584c0.09,0,0.171,0.081,0.171,0.171v0.261c0,0.1-0.081,0.172-0.171,0.172h-2.584
			v2.295h3.025c0.099,0,0.171,0.081,0.171,0.172v0.261c0,0.09-0.072,0.171-0.171,0.171h-3.548c-0.099,0-0.171-0.081-0.171-0.171
			V30.564z"/>
		<path fill="#F1F1F1" d="M209.367,30.564c0-0.09,0.072-0.171,0.171-0.171h2.332c1.08,0,1.963,0.846,1.963,1.917
			c0,0.829-0.55,1.521-1.333,1.837l1.233,2.287c0.063,0.116,0,0.261-0.152,0.261h-0.459c-0.081,0-0.127-0.045-0.145-0.081
			l-1.197-2.386h-1.72v2.296c0,0.09-0.081,0.171-0.171,0.171h-0.352c-0.099,0-0.171-0.081-0.171-0.171V30.564z M211.825,33.635
			c0.693,0,1.297-0.576,1.297-1.314c0-0.685-0.604-1.27-1.297-1.27h-1.746v2.584H211.825z"/>
	</g>
	<g>
		<path fill="#F1F1F1" d="M53.013,13.312c0-0.15,0.135-0.27,0.285-0.27h0.375l6.24,6.629h0.015v-6.194
			c0-0.15,0.12-0.285,0.285-0.285h1.38c0.15,0,0.285,0.135,0.285,0.285V23.57c0,0.15-0.135,0.271-0.285,0.271h-0.36l-6.27-6.885
			h-0.015v6.45c0,0.15-0.12,0.285-0.285,0.285h-1.365c-0.15,0-0.285-0.135-0.285-0.285V13.312z"/>
		<path fill="#F1F1F1" d="M66.699,23.301l4.665-10.094c0.045-0.09,0.12-0.165,0.255-0.165h0.15c0.15,0,0.21,0.075,0.255,0.165
			l4.62,10.094c0.09,0.195-0.03,0.391-0.255,0.391h-1.305c-0.225,0-0.33-0.09-0.435-0.301l-0.735-1.62h-4.485l-0.735,1.62
			c-0.06,0.15-0.195,0.301-0.435,0.301h-1.305C66.729,23.691,66.609,23.496,66.699,23.301z M73.179,20.106l-1.5-3.3h-0.045
			l-1.47,3.3H73.179z"/>
		<path fill="#F1F1F1" d="M82.319,14.991h-2.295c-0.165,0-0.285-0.135-0.285-0.285v-1.229c0-0.15,0.12-0.285,0.285-0.285h6.555
			c0.165,0,0.285,0.135,0.285,0.285v1.229c0,0.15-0.12,0.285-0.285,0.285h-2.295v8.415c0,0.15-0.135,0.285-0.285,0.285h-1.395
			c-0.15,0-0.285-0.135-0.285-0.285V14.991z"/>
		<path fill="#F1F1F1" d="M91.878,13.477c0-0.15,0.135-0.285,0.285-0.285h1.395c0.165,0,0.285,0.135,0.285,0.285v3.975h4.89v-3.975
			c0-0.15,0.12-0.285,0.285-0.285h1.38c0.15,0,0.285,0.135,0.285,0.285v9.93c0,0.15-0.135,0.285-0.285,0.285h-1.38
			c-0.165,0-0.285-0.135-0.285-0.285v-4.14h-4.89v4.14c0,0.15-0.12,0.285-0.285,0.285h-1.395c-0.15,0-0.285-0.135-0.285-0.285
			V13.477z"/>
		<path fill="#F1F1F1" d="M105.504,23.301l4.665-10.094c0.045-0.09,0.12-0.165,0.255-0.165h0.15c0.15,0,0.21,0.075,0.255,0.165
			l4.62,10.094c0.09,0.195-0.029,0.391-0.255,0.391h-1.305c-0.225,0-0.33-0.09-0.436-0.301l-0.734-1.62h-4.485l-0.735,1.62
			c-0.06,0.15-0.195,0.301-0.435,0.301h-1.305C105.534,23.691,105.414,23.496,105.504,23.301z M111.983,20.106l-1.5-3.3h-0.045
			l-1.47,3.3H111.983z"/>
		<path fill="#F1F1F1" d="M120.27,13.312c0-0.15,0.135-0.27,0.285-0.27h0.375l6.239,6.629h0.015v-6.194
			c0-0.15,0.12-0.285,0.285-0.285h1.38c0.15,0,0.285,0.135,0.285,0.285V23.57c0,0.15-0.135,0.271-0.285,0.271h-0.359l-6.271-6.885
			h-0.015v6.45c0,0.15-0.12,0.285-0.285,0.285h-1.364c-0.15,0-0.285-0.135-0.285-0.285V13.312z"/>
		<path fill="#F1F1F1" d="M135.32,13.477c0-0.15,0.135-0.285,0.285-0.285H137c0.15,0,0.285,0.135,0.285,0.285v9.93
			c0,0.15-0.135,0.285-0.285,0.285h-1.395c-0.15,0-0.285-0.135-0.285-0.285V13.477z"/>
		<path fill="#F1F1F1" d="M143.468,13.477c0-0.15,0.12-0.285,0.285-0.285h6.104c0.165,0,0.285,0.135,0.285,0.285v1.229
			c0,0.15-0.12,0.285-0.285,0.285h-4.44v2.46h3.705c0.15,0,0.285,0.135,0.285,0.285v1.245c0,0.165-0.135,0.285-0.285,0.285h-3.705
			v2.625h4.44c0.165,0,0.285,0.135,0.285,0.285v1.23c0,0.15-0.12,0.285-0.285,0.285h-6.104c-0.165,0-0.285-0.135-0.285-0.285V13.477
			z"/>
		<path fill="#F1F1F1" d="M155.742,13.477c0-0.15,0.12-0.285,0.285-0.285h1.38c0.149,0,0.284,0.135,0.284,0.285v8.415h3.825
			c0.165,0,0.285,0.135,0.285,0.285v1.23c0,0.15-0.12,0.285-0.285,0.285h-5.489c-0.165,0-0.285-0.135-0.285-0.285V13.477z"/>
		<path fill="#F1F1F1" d="M173.539,13.477c0-0.15,0.12-0.285,0.27-0.285h3.555c2.896,0,5.265,2.355,5.265,5.235
			c0,2.91-2.369,5.265-5.265,5.265h-3.555c-0.149,0-0.27-0.135-0.27-0.285V13.477z M177.184,21.861c1.95,0,3.375-1.47,3.375-3.435
			c0-1.95-1.425-3.42-3.375-3.42h-1.71v6.854H177.184z"/>
		<path fill="#F1F1F1" d="M188.064,13.477c0-0.15,0.12-0.285,0.285-0.285h6.104c0.165,0,0.285,0.135,0.285,0.285v1.229
			c0,0.15-0.12,0.285-0.285,0.285h-4.44v2.46h3.705c0.15,0,0.285,0.135,0.285,0.285v1.245c0,0.165-0.135,0.285-0.285,0.285h-3.705
			v2.625h4.44c0.165,0,0.285,0.135,0.285,0.285v1.23c0,0.15-0.12,0.285-0.285,0.285h-6.104c-0.165,0-0.285-0.135-0.285-0.285V13.477
			z"/>
		<path fill="#F1F1F1" d="M198.974,23.301l4.665-10.094c0.045-0.09,0.12-0.165,0.255-0.165h0.149c0.15,0,0.211,0.075,0.256,0.165
			l4.619,10.094c0.09,0.195-0.029,0.391-0.255,0.391h-1.305c-0.226,0-0.33-0.09-0.436-0.301l-0.734-1.62h-4.485l-0.734,1.62
			c-0.061,0.15-0.195,0.301-0.436,0.301h-1.305C199.004,23.691,198.884,23.496,198.974,23.301z M205.453,20.106l-1.5-3.3h-0.045
			l-1.47,3.3H205.453z"/>
		<path fill="#F1F1F1" d="M213.739,13.477c0-0.15,0.12-0.285,0.285-0.285h1.38c0.149,0,0.284,0.135,0.284,0.285v8.415h3.825
			c0.165,0,0.285,0.135,0.285,0.285v1.23c0,0.15-0.12,0.285-0.285,0.285h-5.489c-0.165,0-0.285-0.135-0.285-0.285V13.477z"/>
	</g>
	<path fill="#F1F1F1" d="M41.148,37.116H5.068l18.04-36.392L41.148,37.116z M6.681,36.116h32.855L23.108,2.977L6.681,36.116z"/>
	<path fill="#F1F1F1" d="M23.108,45.875c-12.395,0-22.479-10.084-22.479-22.479c0-12.395,10.084-22.479,22.479-22.479
		s22.479,10.084,22.479,22.479C45.587,35.791,35.503,45.875,23.108,45.875z M23.108,1.917c-11.844,0-21.479,9.636-21.479,21.479
		s9.635,21.479,21.479,21.479s21.479-9.635,21.479-21.479S34.952,1.917,23.108,1.917z"/>
	
		<rect x="12.555" y="23.706" transform="matrix(0.6629 0.7487 -0.7487 0.6629 27.9418 -13.65)" fill="#F1F1F1" width="33.15" height="1"/>
</g>
</svg>
